<?xml version="1.0" encoding="UTF-8"?>
<svg id="_图层_1" data-name="图层_1" xmlns="http://www.w3.org/2000/svg" version="1.1" viewBox="0 0 56.69 56.69">
  <!-- Generator: Adobe Illustrator 30.1.0, SVG Export Plug-In . SVG Version: 2.1.1 Build 136)  -->
  <defs>
    <style>
      .st0 {
        fill: #cbb500;
      }

      .st0, .st1 {
        fill-rule: evenodd;
      }

      .st1 {
        fill: #004da0;
      }
    </style>
  </defs>
  <path class="st1" d="M38.99,15.91l-6.17-2.39c3.18,5.77,5.17,10.34,6.17,13.92.99-3.38,1.19-7.16,0-11.54h0Z"/>
  <path class="st1" d="M30.24,45.55c6.56-4.58,12.33-6.56,8.95-18.1-2.19,8.16-7.76,14.12-8.95,18.1h0Z"/>
  <path class="st1" d="M26.46,45.55c-1.19-3.98-6.76-9.95-8.75-18.1-3.58,11.54,2.19,13.53,8.75,18.1h0Z"/>
  <path class="st1" d="M17.7,16.11c-1.19,4.18-.99,8.16,0,11.54.99-3.58,2.98-8.16,6.17-13.92l-6.17,2.39h0Z"/>
  <polygon class="st0" points="28.45 33.02 24.07 27.65 28.45 22.08 32.62 27.65 28.45 33.02"/>
  <polygon class="st1" points="7.16 6.96 49.53 6.96 49.53 21.09 56.69 14.12 56.69 5.17 51.32 0 5.37 0 0 5.17 0 28.45 7.16 21.28 7.16 6.96"/>
  <path class="st1" d="M49.53,31.23v18.3h-17.9c-1.59-.99-1.79-2.39-1.19-3.98-.66.44-1.29.89-1.91,1.35-.62-.5-1.25-.96-1.87-1.35.4,1.79,0,2.98-1.39,3.98H7.16v-26.85L0,29.64v21.68l5.37,5.37h45.95l5.37-5.37v-27.25l-7.16,7.16Z"/>
</svg>